<svg id="Layer_1" data-name="Layer 1" xmlns="http://www.w3.org/2000/svg" xmlns:xlink="http://www.w3.org/1999/xlink" viewBox="0 0 1366 768"><defs><style>.cls-1{fill:none;}.cls-2{clip-path:url(#clip-path);}.cls-3{fill:#a259d9;}.cls-4{fill:#ff7bac;}</style><clipPath id="clip-path"><path class="cls-1" d="M-163-147V915H1492V-147ZM1448,452.38,1042.78,792,1448,526.42V830L931,841l233.82-224.84L869,854H734l308.74-484.64L662.25,854H464.81L642,652,386.28,854H233.72L626,484,135,869.5H9L525,428-69,849V613.92L397,320-69,555.58V438.91L594,60.43-69,387V266.16L173,132-69,225.77V-54.68L445-59,229,51,485-55l74,3L332,105,620-50l179-5,98.5.32L630.58,226.17,983.08-70H1059L637.57,408,1173.79-70h114.43L1124,127,1385.5-70h46.31V151.73L961,699l487-417Z"/></clipPath></defs><g class="cls-2"><rect class="cls-3" x="-47" y="-43" width="1456" height="849"/><polyline class="cls-4" points="-10.5 627.5 177.5 825.5 -10.5 552.21 668.5 782.5 -10.5 287.93 402.5 798.5 584.5 796.5 309.14 -56.5 -19.5 64.5 1086.5 500.5 179.5 -81.5 790.5 486.5 474.5 -119.5 1118.5 789.5 818.5 -78.5 1235.5 -15.5 804.5 809.5 1376.5 548.5 997.5 845.5 1302.5 -51.5 690.5 -28.5 1315.5 809.5 1331.46 -119.5"/></g></svg>